<?xml version="1.0" encoding="UTF-8"?>
<svg id="Layer_1" xmlns="http://www.w3.org/2000/svg" version="1.1" viewBox="0 0 1000 1000">
  <!-- Generator: Adobe Illustrator 29.2.1, SVG Export Plug-In . SVG Version: 2.1.0 Build 116)  -->
  <path d="M293.16,630.77l57.88-97.87s53.42,92.17,53.43,92.2l-56.97,98.98-253.69.37-1.09-1.1c5.02-8.72,10.1-17.4,15.09-26.13,47.4-82.73,96-165.87,143.91-248.79,31.29-54.16,98.9-172.4,100.26-171.39l256.76,445.85.75,1.55h-107.25l-151.38-260.78-96.3,167.11h38.59Z"/>
  <path d="M649.14,723.71l-204.12-354.67,53.48-91.97,151.38,260.02,151.38-260.78h107.22s-1.23,2.38-1.81,3.49c-6.34,12.12-14.09,24.76-20.97,36.73-71.32,124.06-143.5,248.25-215.21,371.74"/>
</svg>